<?xml version="1.0" encoding="utf-8"?>
<!-- Generator: Adobe Illustrator 19.2.0, SVG Export Plug-In . SVG Version: 6.00 Build 0)  -->
<svg version="1.1" id="Layer_1" xmlns="http://www.w3.org/2000/svg" xmlns:xlink="http://www.w3.org/1999/xlink" x="0px" y="0px"
	 viewBox="0 0 878.7 1332.3" style="enable-background:new 0 0 878.7 1332.3;" xml:space="preserve">
<style type="text/css">
	.st0{fill:#F18439;}
</style>
<g>
	<path class="st0" d="M10.3,649.6c6.9-12.1,16.3-21.5,28.2-28.2c11.9-6.7,25.3-10.1,40.1-10.1c17.3,0,32.5,4.4,45.5,13.3
		c13,8.9,22.1,21.2,27.3,36.8h-35.7c-3.6-7.4-8.5-12.9-15-16.6c-6.4-3.7-13.9-5.5-22.3-5.5c-9,0-17.1,2.1-24.1,6.3
		c-7,4.2-12.5,10.2-16.4,17.9c-3.9,7.7-5.9,16.7-5.9,27.1c0,10.2,2,19.2,5.9,27c3.9,7.8,9.4,13.8,16.4,18c7,4.2,15.1,6.3,24.1,6.3
		c8.4,0,15.9-1.9,22.3-5.7s11.4-9.4,15-16.8h35.7c-5.2,15.8-14.2,28.2-27.2,37c-12.9,8.8-28.2,13.2-45.6,13.2
		c-14.8,0-28.2-3.4-40.1-10.1c-11.9-6.7-21.3-16.1-28.2-28.1C3.4,719.4,0,705.8,0,690.6C0,675.3,3.4,661.7,10.3,649.6z"/>
	<path class="st0" d="M209.1,604v164.2H178V604H209.1z"/>
	<rect x="239.7" y="645.3" class="st0" width="31.1" height="123"/>
	<path class="st0" d="M369.3,768.2L344,730.1l-22.4,38.2h-33.3l40.2-61.7l-40.6-61.3h35.1l25.1,38l22.6-38H404l-40.4,61.3l40.8,61.7
		H369.3z"/>
	<path class="st0" d="M537.4,645.3v123h-31.3v-15.5c-4,5.3-9.2,9.5-15.6,12.5c-6.4,3-13.4,4.5-21,4.5c-9.6,0-18.1-2-25.5-6.1
		c-7.4-4.1-13.2-10.1-17.4-18c-4.2-7.9-6.3-17.3-6.3-28.3v-72.1h31.1V713c0,9.8,2.4,17.3,7.3,22.5c4.9,5.3,11.5,7.9,20,7.9
		c8.6,0,15.3-2.6,20.2-7.9c4.9-5.3,7.3-12.8,7.3-22.5v-67.7H537.4z"/>
	<path class="st0" d="M614.7,649.1c6.4-3.7,13.8-5.5,22.1-5.5v32.6h-8.2c-9.8,0-17.1,2.3-22.1,6.9c-5,4.6-7.4,12.6-7.4,24v61.3H568
		v-123h31.1v19.1C603.1,657.9,608.3,652.8,614.7,649.1z"/>
	<path class="st0" d="M771.1,716.1h-89.9c0.7,8.9,3.8,15.8,9.3,20.9c5.5,5,12.2,7.5,20.2,7.5c11.5,0,19.8-5,24.6-14.9h33.5
		c-3.6,11.8-10.4,21.6-20.4,29.2c-10.1,7.6-22.4,11.4-37.1,11.4c-11.8,0-22.5-2.6-31.9-7.9c-9.4-5.3-16.7-12.7-22-22.3
		c-5.3-9.6-7.9-20.7-7.9-33.3c0-12.7,2.6-23.9,7.8-33.5c5.2-9.6,12.4-17,21.8-22.2c9.3-5.2,20-7.8,32.2-7.8
		c11.7,0,22.2,2.5,31.4,7.5c9.2,5,16.4,12.2,21.5,21.4c5.1,9.2,7.7,19.9,7.7,31.9C772,708.5,771.7,712.5,771.1,716.1z M739.8,695.2
		c-0.2-8-3-14.4-8.7-19.2c-5.6-4.8-12.5-7.2-20.6-7.2c-7.7,0-14.2,2.3-19.4,7c-5.3,4.7-8.5,11.1-9.7,19.4H739.8z"/>
	<path class="st0" d="M270.8,624.9h-31v-31h0C251.8,606,258.6,612.8,270.8,624.9L270.8,624.9z"/>
	<g>
		<path class="st0" d="M772,607.8v-30.5h30.5H833l30.5,30.5v30.5v30.5H833v-30.5l0,0h0c-16.9,0-30.5,13.7-30.5,30.5v0H772v0
			c0-33.7,27.3-61.1,61.1-61.1h-30.5H772z"/>
		<path class="st0" d="M878.7,592.4h-30.4V562l0,0C860.2,573.9,866.9,580.6,878.7,592.4L878.7,592.4z"/>
	</g>
</g>
</svg>
