<?xml version="1.0" encoding="utf-8"?>
<!-- Generator: Adobe Illustrator 19.2.0, SVG Export Plug-In . SVG Version: 6.00 Build 0)  -->
<svg version="1.1" id="Layer_1" xmlns="http://www.w3.org/2000/svg" xmlns:xlink="http://www.w3.org/1999/xlink" x="0px" y="0px"
	 viewBox="0 0 878.7 1332.3" style="enable-background:new 0 0 878.7 1332.3;" xml:space="preserve">
<style type="text/css">
	.st0{fill:#F18439;}
	.st1{font-family:'Poppins-Light';}
	.st2{font-size:154.052px;}
</style>
<g>
	<g>
		<path class="st0" d="M0,600.6l0-89.2h89.2h89.2l89.2,89.2v89.2v89.2h-89.2v-89.2l0,0h0c-49.3,0-89.2,40-89.2,89.2v0H0v0
			c0-98.6,79.9-178.5,178.5-178.5H89.2H0z"/>
		<path class="st0" d="M312.2,555.8h-88.9v-88.9h0C258,501.6,277.5,521.1,312.2,555.8L312.2,555.8z"/>
	</g>
	<g>
		<path class="st0" d="M350.6,548.4c4.8-8.4,11.3-14.9,19.5-19.5c8.3-4.7,17.5-7,27.8-7c12,0,22.5,3.1,31.6,9.2
			c9,6.2,15.3,14.7,18.9,25.5h-24.8c-2.5-5.1-5.9-9-10.4-11.5c-4.5-2.6-9.6-3.8-15.5-3.8c-6.3,0-11.8,1.5-16.7,4.4
			c-4.9,2.9-8.7,7.1-11.4,12.4c-2.7,5.3-4.1,11.6-4.1,18.8c0,7.1,1.4,13.3,4.1,18.7c2.7,5.4,6.5,9.5,11.4,12.5
			c4.9,2.9,10.4,4.4,16.7,4.4c5.8,0,11-1.3,15.5-3.9c4.5-2.6,7.9-6.5,10.4-11.6h24.8c-3.6,11-9.9,19.5-18.9,25.6
			c-9,6.1-19.5,9.2-31.6,9.2c-10.3,0-19.5-2.3-27.8-7c-8.3-4.7-14.8-11.2-19.5-19.5c-4.8-8.3-7.2-17.8-7.2-28.3
			C343.4,566.2,345.8,556.8,350.6,548.4z"/>
		<path class="st0" d="M488.4,516.8v113.9h-21.6V516.8H488.4z"/>
		<rect x="509.6" y="545.4" class="st0" width="21.6" height="85.3"/>
		<path class="st0" d="M599.5,630.7L582,604.2l-15.5,26.5h-23.1l27.9-42.8L543,545.4h24.3l17.4,26.3l15.7-26.3h23.1l-28,42.5
			l28.3,42.8H599.5z"/>
		<path class="st0" d="M716,545.4v85.3h-21.7v-10.8c-2.8,3.7-6.4,6.6-10.9,8.7c-4.5,2.1-9.3,3.2-14.5,3.2c-6.7,0-12.6-1.4-17.7-4.2
			c-5.1-2.8-9.2-7-12.1-12.5c-2.9-5.5-4.4-12-4.4-19.6v-50h21.5v46.9c0,6.8,1.7,12,5.1,15.6c3.4,3.6,8,5.5,13.9,5.5
			c5.9,0,10.6-1.8,14-5.5c3.4-3.6,5.1-8.8,5.1-15.6v-46.9H716z"/>
		<path class="st0" d="M769.7,548c4.5-2.6,9.6-3.8,15.3-3.8v22.6h-5.7c-6.8,0-11.9,1.6-15.3,4.8c-3.4,3.2-5.2,8.7-5.2,16.6v42.5
			h-21.6v-85.3h21.6v13.2C761.6,554.1,765.2,550.6,769.7,548z"/>
		<path class="st0" d="M878.1,594.5h-62.3c0.5,6.2,2.7,11,6.5,14.5c3.8,3.5,8.5,5.2,14,5.2c8,0,13.7-3.4,17.1-10.3h23.2
			c-2.5,8.2-7.2,15-14.2,20.2c-7,5.3-15.5,7.9-25.7,7.9c-8.2,0-15.6-1.8-22.1-5.5c-6.5-3.6-11.6-8.8-15.2-15.5
			c-3.6-6.7-5.5-14.4-5.5-23.1c0-8.8,1.8-16.6,5.4-23.2c3.6-6.7,8.6-11.8,15.1-15.4c6.5-3.6,13.9-5.4,22.3-5.4
			c8.1,0,15.4,1.7,21.8,5.2c6.4,3.5,11.4,8.4,14.9,14.9c3.5,6.4,5.3,13.8,5.3,22.1C878.7,589.3,878.5,592.1,878.1,594.5z M856.4,580
			c-0.1-5.5-2.1-10-6-13.3c-3.9-3.3-8.7-5-14.3-5c-5.3,0-9.8,1.6-13.5,4.8c-3.6,3.2-5.9,7.7-6.7,13.5H856.4z"/>
		<path class="st0" d="M531.2,531.3h-21.5v-21.5h0C518.1,518.2,522.8,522.9,531.2,531.3L531.2,531.3z"/>
	</g>
	<text transform="matrix(1 0 0 1 333.707 778.4727)" class="st0 st1 st2">Digital</text>
</g>
</svg>
