<?xml version="1.0" encoding="utf-8"?>
<!-- Generator: Adobe Illustrator 19.2.0, SVG Export Plug-In . SVG Version: 6.00 Build 0)  -->
<svg version="1.1" id="Layer_1" xmlns="http://www.w3.org/2000/svg" xmlns:xlink="http://www.w3.org/1999/xlink" x="0px" y="0px"
	 viewBox="0 0 878.7 1332.3" style="enable-background:new 0 0 878.7 1332.3;" xml:space="preserve">
<style type="text/css">
	.st0{fill:#F18439;}
</style>
<g>
	<g>
		<path class="st0" d="M-0.6,652.5v-54.4h54.4h54.4l54.4,54.4v54.4v54.4h-54.4v-54.4l0,0h0c-30,0-54.4,24.3-54.4,54.4v0H-0.6v0
			c0-60.1,48.7-108.7,108.7-108.7H53.8H-0.6z"/>
		<path class="st0" d="M189.6,625.2h-54.2V571h0C156.6,592.2,168.5,604,189.6,625.2L189.6,625.2z"/>
	</g>
	<g>
		<path class="st0" d="M212.2,655.6c6-10.6,14.3-18.8,24.7-24.7c10.4-5.9,22.1-8.8,35.1-8.8c15.2,0,28.4,3.9,39.9,11.7
			c11.4,7.8,19.4,18.5,23.9,32.3h-31.3c-3.1-6.5-7.5-11.3-13.1-14.6c-5.6-3.2-12.2-4.9-19.5-4.9c-7.9,0-14.9,1.8-21.1,5.5
			c-6.2,3.7-11,8.9-14.4,15.6c-3.4,6.7-5.2,14.6-5.2,23.7c0,8.9,1.7,16.8,5.2,23.6c3.4,6.8,8.2,12.1,14.4,15.7
			c6.2,3.7,13.2,5.5,21.1,5.5c7.4,0,13.9-1.7,19.5-5s10-8.2,13.1-14.7h31.3c-4.5,13.9-12.5,24.7-23.8,32.4
			c-11.3,7.7-24.7,11.6-39.9,11.6c-13,0-24.7-2.9-35.1-8.8c-10.4-5.9-18.7-14.1-24.7-24.6c-6-10.5-9-22.4-9-35.8
			C203.2,678.1,206.2,666.1,212.2,655.6z"/>
		<path class="st0" d="M386.3,615.6v143.9h-27.2V615.6H386.3z"/>
		<rect x="413.2" y="651.8" class="st0" width="27.2" height="107.7"/>
		<path class="st0" d="M526.7,759.5l-22.2-33.4l-19.6,33.4h-29.2l35.2-54l-35.6-53.7h30.7l22,33.2l19.8-33.2H557l-35.4,53.7l35.8,54
			H526.7z"/>
		<path class="st0" d="M673.9,651.8v107.7h-27.4v-13.6c-3.5,4.7-8.1,8.3-13.7,11c-5.6,2.7-11.8,4-18.4,4c-8.4,0-15.9-1.8-22.4-5.3
			c-6.5-3.6-11.6-8.8-15.3-15.7c-3.7-6.9-5.5-15.2-5.5-24.8v-63.2h27.2v59.3c0,8.6,2.1,15.1,6.4,19.7c4.3,4.6,10.1,6.9,17.5,6.9
			c7.5,0,13.4-2.3,17.7-6.9c4.3-4.6,6.4-11.2,6.4-19.7v-59.3H673.9z"/>
		<path class="st0" d="M741.6,655.1c5.6-3.2,12.1-4.9,19.3-4.9v28.6h-7.2c-8.6,0-15,2-19.3,6c-4.3,4-6.5,11-6.5,21v53.7h-27.2V651.8
			h27.2v16.7C731.4,662.8,736,658.3,741.6,655.1z"/>
		<path class="st0" d="M878.6,713.8h-78.7c0.6,7.8,3.4,13.9,8.2,18.3c4.8,4.4,10.7,6.6,17.7,6.6c10.1,0,17.3-4.3,21.6-13h29.4
			c-3.1,10.4-9.1,18.9-17.9,25.6c-8.8,6.7-19.6,10-32.5,10c-10.4,0-19.7-2.3-27.9-6.9c-8.2-4.6-14.6-11.1-19.2-19.5
			c-4.6-8.4-6.9-18.1-6.9-29.2c0-11.1,2.3-20.9,6.8-29.4c4.5-8.4,10.9-14.9,19.1-19.4c8.2-4.5,17.6-6.8,28.2-6.8
			c10.2,0,19.4,2.2,27.5,6.6c8.1,4.4,14.4,10.7,18.9,18.8c4.5,8.1,6.7,17.4,6.7,27.9C879.3,707.2,879.1,710.7,878.6,713.8z
			 M851.2,695.5c-0.1-7-2.7-12.6-7.6-16.8c-4.9-4.2-11-6.3-18.1-6.3c-6.7,0-12.4,2-17,6.1c-4.6,4.1-7.4,9.8-8.5,17H851.2z"/>
		<path class="st0" d="M440.4,634h-27.2v-27.2h0C423.8,617.4,429.7,623.4,440.4,634L440.4,634z"/>
	</g>
</g>
</svg>
